# xmcd
#
# Track frame offsets:
#	150
#	14148
#	26819
#	40657
#	50645
#	63960
#	82867
#	97022
#	109736
#	125280
#	139199
#	151537
#	163265
#	177288
#	191144
#	201785
#	214311
#	229918
#	239206
#	252561
#	267526
#	281651
#	291171
#
# Disc length: 4023 seconds
#
# Revision: 1
# Processed by: cddbd v1.5.2PL0 Copyright (c) Steve Scherf et al.
# Submitted via: audiograbber 1.83.01
#
DISCID=630fb517
DTITLE=The Greatest Country Music Recordings Of All Time - Record 1 and 2
DYEAR=1900
DGENRE=
TTITLE0=Dolly Parton - My Tennessee Mountain Home
TTITLE1=Merle Haggard - The Bottle Let Me Down
TTITLE2=Tom T. Hall - The Ballad Of Forty Dollars
TTITLE3=Merle Haggard - Mama Tried
TTITLE4=Don Williams - The Shelter Of Your Eyes
TTITLE5=Tom T. Hall - Old Dogs, Children And Watermelon Wine
TTITLE6=Mac Davis - Dream Me Home
TTITLE7=Merle Haggard - Sing Me Back Home
TTITLE8=Don Williams - Til The Rivers All Run Dry
TTITLE9=Bill Anderson - City Lights
TTITLE10=Merle Haggard - If We Make It Through December
TTITLE11=Merle Haggard - Workin' Man Blues
TTITLE12=Dolly Parton - Coat Of Many Colors
TTITLE13=Mac Davis - Baby, Don't Get Hooked On Me
TTITLE14=Merle Haggard - Today I Started Loving You Again
TTITLE15=Tom T. Hall - The Year That Clayton Delaney Died
TTITLE16=Merle Haggard - Hungry Eyes
TTITLE17=Dolly Parton - The Letter
TTITLE18=Dolly Parton - Down On Music Row
TTITLE19=Tom T. Hall - Homecoming
TTITLE20=Merle Haggard - Rambling Fever
TTITLE21=Tom T. Hall - I Love
TTITLE22=Roger Miller - Husbands And Wives
EXTD=
EXTT0=
EXTT1=
EXTT2=
EXTT3=
EXTT4=
EXTT5=
EXTT6=
EXTT7=
EXTT8=
EXTT9=
EXTT10=
EXTT11=
EXTT12=
EXTT13=
EXTT14=
EXTT15=
EXTT16=
EXTT17=
EXTT18=
EXTT19=
EXTT20=
EXTT21=
EXTT22=
PLAYORDER=
